# xmcd CD database file
#
# Track frame offsets:
#	150
#	15570
#	38562
#	52512
#	73502
#	86662
#	101282
#	114832
#	128675
#	144932
#
# Disc length: 2235 seconds
#
# Revision: 0
# Processed by: cddbd v1.5.2PL0 Copyright (c) Steve Scherf et al.
# Submitted via: CDex 1.79
#
DISCID=6908b90a
DTITLE=Greg Hudik - Livin` In The Southern Land
DYEAR=1900
DGENRE=Country
TTITLE0=Livin` In The Southern Land
TTITLE1=Hope You Find The Right One
TTITLE2=We`re Just Hangin` Out
TTITLE3=Rodeo Man
TTITLE4=I`ll Be Drinkin` 
TTITLE5=Lighten Up
TTITLE6=Down The Highway
TTITLE7=Covered It Up With Roses
TTITLE8=Brother You Lose
TTITLE9=The Road Song
EXTD=
EXTT0=
EXTT1=
EXTT2=
EXTT3=
EXTT4=
EXTT5=
EXTT6=
EXTT7=
EXTT8=
EXTT9=
PLAYORDER=
